<svg width="360" height="220" viewBox="0 0 360 220" xmlns="http://www.w3.org/2000/svg">
  <rect width="360" height="220" rx="24" fill="rgba(255,255,255,0.85)" stroke="rgba(139,111,71,0.35)" stroke-width="2"/>
  <g fill="none" stroke="url(#grad)" stroke-width="6" stroke-linecap="round" stroke-linejoin="round">
    <path d="M120 150 C110 120 120 80 130 80 C140 80 140 120 150 120 C160 120 160 70 170 70 C180 70 180 130 190 130 C200 130 200 60 210 60 C220 60 220 140 230 140 C240 140 240 90 250 90 C260 90 260 170 240 190 C220 210 150 210 140 190"/>
  </g>
  <circle cx="270" cy="80" r="18" fill="rgba(139,111,71,0.2)" stroke="rgba(139,111,71,0.4)" stroke-width="3"/>
  <circle cx="280" cy="150" r="8" fill="rgba(212,165,116,0.6)"/>
  <circle cx="80" cy="70" r="10" fill="rgba(139,111,71,0.25)"/>
  <defs>
    <linearGradient id="grad" x1="0%" y1="0%" x2="100%" y2="100%">
      <stop offset="0%" stop-color="#8B6F47"/>
      <stop offset="100%" stop-color="#D4A574"/>
    </linearGradient>
  </defs>
</svg>

